<svg width="681" height="824" viewBox="0 0 681 824" fill="none" xmlns="http://www.w3.org/2000/svg">
<path d="M474.066 0.96629C473.837 0.941721 473.616 0.941844 473.399 0.973594C473.143 1.00969 472.894 1.09301 472.647 1.1967C471.975 1.32692 471.36 1.62913 470.808 2.12934C468.709 4.02849 467.583 7.43981 466.521 16.3055C466.51 16.3897 466.502 16.4624 466.492 16.5505C466.188 19.117 465.888 22.0602 465.572 25.6337C465.287 28.8575 465.149 40.173 465.128 54.1177C465.053 62.1005 465.084 70.7011 465.214 79.7068C465.342 97.5219 465.605 114.907 465.989 123.477C466.308 130.597 466.68 137.666 467.086 144.619C467.212 147.149 467.344 149.486 467.483 151.566C467.549 152.55 467.631 153.583 467.701 154.58C470.198 193.051 473.797 225.893 476.853 235.974C476.867 236.025 476.874 236.063 476.884 236.111C476.916 236.34 476.954 236.581 476.972 236.742C476.89 237.313 476.088 237.248 473.776 236.738C457.263 233.093 420.4 233.134 388.304 236.831C364.803 239.538 329.693 248.21 317.754 254.257L316.693 254.795C315.62 255.21 314.687 255.542 314.011 255.724C313.181 255.888 312.565 255.901 312.056 255.789L309.675 254.215C303.898 250.392 292.391 244.14 280.243 238.023C278.883 237.317 277.543 236.626 276.35 236.028C272.182 233.939 267.839 231.874 263.359 229.84C259.301 227.955 255.382 226.181 251.948 224.731C199.835 202.718 136.399 186.761 83.672 182.4C77.7504 181.91 70.4735 181.675 63.3184 181.632C61.4659 181.576 59.7434 181.544 58.2602 181.546C55.5641 181.548 53.0149 181.633 50.5669 181.756C48.9229 181.804 47.3633 181.868 45.9183 181.959C39.8702 182.267 35.3239 182.768 34.0042 183.433C33.1119 183.882 32.3825 184.319 31.7915 184.762C30.3967 185.577 29.7031 186.554 29.7031 187.699C29.7031 188.181 29.8786 188.797 30.195 189.513C30.3872 190.136 30.6798 190.818 31.0692 191.578C31.9757 193.346 35.0493 196.911 38.9893 201.003C42.1113 204.337 45.7834 207.912 49.6946 211.377C53.2448 214.611 56.7148 217.586 59.48 219.634C68.3661 226.215 86.5984 238.642 87.3678 238.642C87.6792 238.642 89.2074 239.549 90.7637 240.657C94.1438 243.064 101.536 247.346 110.843 252.43C113.221 253.87 118.667 256.755 125.403 260.219C145.432 270.731 168.907 282.349 182.788 288.311C187.213 290.212 191.904 292.171 196.651 294.132C199.35 295.291 202.865 296.728 207.09 298.393C226.718 306.305 245.859 313.5 253.795 315.804C256.762 316.665 258.126 317.214 258.571 317.865C258.514 318.407 258.374 319.242 258.156 320.324C254.327 331.454 249.788 360.904 249.75 375.575C249.748 376.39 249.721 377.159 249.682 377.876C249.64 378.285 249.609 378.545 249.571 378.898C249.308 380.469 249.006 381.4 248.654 381.738C248.085 381.584 247.027 381.196 245.661 380.654C243.93 379.917 241.685 378.919 239.306 377.815C234.471 375.571 229.468 373.406 228.187 373.004C226.907 372.602 223.753 371.32 221.178 370.153C215.21 367.45 204.749 363.527 189.344 358.215C146.934 343.592 98.0146 332.201 55.9213 327.146C51.0431 326.56 43.4162 325.935 35.4599 325.392C29.2887 324.896 23.2033 324.518 17.2368 324.278C14.4214 324.165 12.2054 324.099 10.2566 324.064C5.84609 323.932 2.73756 323.933 2.18654 324.145C1.52578 324.398 1.10097 324.91 0.906447 325.758C0.739421 326.149 0.679688 326.614 0.679688 327.171C0.679688 327.182 0.681559 327.203 0.681559 327.213C0.681381 327.227 0.679688 327.241 0.679688 327.255C0.679688 327.654 0.814167 328.356 1.00703 329.192C1.44272 331.758 2.52087 335.46 4.30784 340.742C11.6739 362.515 23.3232 390.798 35.5294 417.443V417.445C35.9837 418.569 37.2236 421.233 38.8284 424.596C49.0788 446.539 59.4883 466.824 67.892 480.675C70.9095 485.648 72.4807 488.566 74.1755 490.243C74.5476 490.746 74.8335 491.087 74.9819 491.179C75.0247 491.204 75.2091 491.232 75.4556 491.259C78.0036 492.8 81.5092 492.333 90.0962 491.943C91.4538 491.882 93.5135 491.846 96.0176 491.83C100.943 491.9 106.262 491.96 112.048 491.994C117.216 492.026 122.191 492.084 127.073 492.154C146.517 492.526 167.319 493.15 174.363 493.721C176.423 493.888 182.216 494.326 187.237 494.694C188.425 494.781 189.548 494.879 190.591 494.984C193.603 495.374 195.543 495.785 196.139 496.21C196.125 496.563 196.024 497.196 195.861 498.007C195.603 498.939 195.276 500.068 194.905 501.273C186.961 527.071 169.213 589.115 169.213 591.09C169.213 591.27 169.245 591.445 169.29 591.619C169.265 591.75 169.213 591.973 169.213 592.021C169.213 592.261 169.577 592.596 170.298 593.027C172.142 594.577 176.74 596.444 187.003 600.091C204.055 606.151 225.578 614.178 230.718 616.365C230.89 616.46 231.082 616.556 231.241 616.65C232.384 617.323 233.203 618.107 234.017 619.563C234.307 620.134 234.565 620.742 234.751 621.346C235.345 623.281 236.692 627.079 237.744 629.786C237.863 630.092 237.958 630.351 238.061 630.627C238.705 632.772 239.036 634.217 239.099 635.327C239.04 636.002 238.854 636.647 238.538 637.411C237.547 639.803 236.805 640.193 232.108 640.778C229.179 641.143 226.07 641.956 223.045 643.059C221.103 643.69 219.232 644.501 217.426 645.498C212.386 648.06 208.17 651.285 206.34 654.371C205.008 655.517 203.896 656.323 203.321 656.514C202.563 655.691 201.361 654.124 200.111 652.279C198.622 650.079 195.03 645.851 191.467 642.025C190.994 641.512 190.52 641.011 190.048 640.522C189.779 640.242 189.502 639.933 189.238 639.663C182.705 632.975 181.275 631.928 178.518 631.894C178.504 631.894 178.482 631.887 178.469 631.887C178.454 631.887 178.437 631.889 178.423 631.889C178.409 631.888 178.398 631.887 178.383 631.887C178.344 631.887 178.308 631.89 178.269 631.89C178.255 631.89 178.241 631.887 178.227 631.887C178.162 631.887 178.098 631.898 178.033 631.901C174.242 632.032 172.125 634.283 171.359 639.006C171.083 640.701 170.321 642.595 169.552 643.601C169.287 643.804 169.027 644.088 168.775 644.443C167.038 646.372 166.013 650.305 165.666 655.698C165.55 656.946 165.468 658.208 165.468 659.464C165.468 661.15 165.549 662.992 165.668 664.906C166.247 676.956 168.921 692.745 173.516 709.133C174.816 713.768 176.47 719.729 177.192 722.38C179.296 730.11 183.072 740.527 187.365 750.925C188.573 754.298 190.916 759.619 193.705 765.415C197.094 772.727 200.469 779.324 203.348 784.037C211.994 798.191 219 805.91 226.017 809.014C230.773 811.117 233.772 810.768 236.781 807.759L238.757 805.782L244.949 807.803C245.095 807.85 245.284 807.901 245.436 807.949C247.65 808.829 249.989 809.483 252.915 809.955C254.337 810.282 255.694 810.574 256.757 810.749C263.92 811.928 296.409 811.906 311.063 810.712C317.242 810.209 327.429 809.52 333.698 809.182L345.099 808.567L344.574 812.473C344.28 814.66 344.519 816.374 345.219 817.616C346.01 819.152 347.499 819.936 349.637 819.962C351.712 820.043 354.355 819.437 357.516 818.077L362.181 816.071L365.235 819.402C365.782 820.201 366.369 820.801 367.001 821.22C368.012 822.201 368.838 822.893 369.067 822.893C370.223 822.893 373.761 820.819 375.856 818.912L376.916 817.947C377.345 817.668 377.675 817.508 377.953 817.459C378.135 817.483 378.316 817.537 378.5 817.621L380.874 819.995C384.317 823.439 385.445 823.297 392.521 818.534L397.166 815.407L397.787 816.087L400.324 819.137C404.948 824.701 407.812 824.385 414.723 817.546L418.849 813.463C419.556 812.926 420.15 812.556 420.641 812.345L424.582 813.463C426.83 814.1 428.504 814.532 429.912 814.796L433.171 815.756L435.431 814.591C436.43 814.256 437.506 813.752 438.856 813.068L443.801 810.562L449.059 815.694C449.191 815.823 449.314 815.933 449.445 816.058C450.558 817.184 451.635 818.121 452.671 818.896C458.341 823.367 461.668 822.797 463.339 817.219C463.512 816.641 463.66 816.222 463.82 815.734C464.205 814.645 464.573 813.83 464.789 813.6C465.077 813.702 467.871 815.281 471.285 817.276C474.81 819.335 478.3 821.021 479.041 821.021C480.848 821.021 483.81 818.252 483.81 816.562C483.81 816.555 483.812 816.548 483.812 816.541C484.216 816.072 484.647 815.792 485.03 815.762C485.166 815.801 485.287 815.823 485.448 815.891C486.35 816.271 489.315 816.792 492.039 817.047C496.887 817.502 497.014 817.45 498.096 814.584C498.479 813.568 498.773 812.906 499.211 812.472C499.251 812.44 499.295 812.418 499.336 812.389C499.864 812.095 500.621 811.882 501.696 811.716C501.833 811.706 501.95 811.689 502.099 811.685C502.103 811.685 502.104 811.685 502.112 811.685C502.47 811.671 502.862 811.663 503.3 811.663C503.311 811.663 503.319 811.662 503.329 811.662C503.505 811.661 503.648 811.658 503.838 811.658C504.157 811.658 504.441 811.63 504.743 811.616C504.885 811.608 505.04 811.606 505.176 811.596C509.466 811.293 511.897 809.527 511.901 806.598C511.902 805.384 512.004 804.921 518.36 804.725L526.21 804.932C534.561 805.153 544.898 804.911 555.813 804.314C569.942 803.913 580.083 802.907 598.038 800.477L608.872 799.012L610.658 798.786L610.845 798.948L613.019 801.337C615.293 803.833 617.799 805.341 620.54 805.874C620.579 805.881 620.619 805.883 620.658 805.89C623.245 806.366 626.041 805.98 629.057 804.718C632.359 803.335 636.537 799.48 640.872 794.133C643.528 790.947 646.133 787.271 648.659 783.152C651.808 778.132 654.81 772.607 657.378 766.953C670.69 737.649 679.313 699.967 680.59 673.294C680.972 668.614 681.124 665.06 680.886 664.28C680.835 664.115 680.769 663.673 680.694 663.114C680.346 652.484 678.405 644.673 674.604 641.542C673.581 640.699 672.106 638.722 671.055 636.872C670.991 635.957 670.375 634.974 669.491 634.116C668.667 632.911 667.863 632.441 666.448 632.209C666.056 632.074 665.663 631.978 665.276 631.929C665.217 631.921 665.159 631.919 665.101 631.912C665.008 631.902 664.913 631.887 664.824 631.887C664.814 631.887 664.796 631.89 664.784 631.894C664.756 631.894 664.728 631.887 664.7 631.887C664.313 631.887 663.917 631.946 663.517 632.049C661.883 632.21 660.805 633.004 658.801 635.129C658.211 635.754 657.598 636.31 657.018 636.771C656.517 637.135 656.027 637.475 655.588 637.733C655.096 637.991 654.695 638.105 654.463 638.016C653.451 637.628 652.072 638.361 650.451 640.039C649.366 641.061 648.185 642.602 646.859 644.722C645.22 647.234 643.458 650.371 641.642 654.073C639.149 659.154 637.283 662.878 636.549 664.273C636.274 664.732 636.012 665.168 635.858 665.361C635.352 665.118 632.768 662.753 629.75 659.753C619.147 649.213 608.3 641.811 600.831 640.017C599.147 639.613 597.796 638.035 596.102 634.498C594.797 631.774 590.533 623.226 586.625 615.501C573.375 589.31 565.732 565.573 563.865 544.811C563.564 541.464 563.099 536.931 562.83 534.738C562.725 533.883 562.666 533.217 562.686 532.601C562.821 531.716 563.06 530.952 563.393 530.225C564.272 528.741 566.099 526.797 569.675 523.035C573.708 518.79 578.464 513.422 580.243 511.104C582.022 508.787 583.716 506.68 584.007 506.423C585.778 504.854 590.181 497.827 594.502 490.16C596.695 486.474 598.626 482.863 600.275 479.383C602.099 475.769 603.585 472.559 604.375 470.375C606.688 463.98 608.447 452.669 608.255 445.421C607.895 431.809 605.764 422.88 597.111 398.748C588.707 375.31 586.305 366.816 581.09 342.102C577.192 323.633 574.368 314.324 568.309 299.969L563.77 289.216C563.633 287.86 563.536 286.133 563.477 283.898L563.452 282.571C563.416 280.698 563.393 278.636 563.393 276.09C563.393 271.462 563.296 266.364 563.123 261.09C563.012 256.155 562.862 251.604 562.651 247.223C561.289 212.962 557.242 185.665 548.447 149.559C535.758 97.4625 511.396 42.7906 487.612 13.0335C482.871 7.10218 479.15 3.45546 476.224 1.9369C475.371 1.35195 474.679 1.03645 474.068 0.965854L474.066 0.96629ZM262.675 512.659L270.242 527.792L256.055 585.485L225.788 570.353L262.675 512.659Z" fill="black"/>
<path d="M369.603 822.8C369.392 822.861 369.21 822.892 369.066 822.892C369.066 822.892 369.067 822.894 369.067 822.894C369.212 822.894 369.392 822.861 369.603 822.8Z" fill="#FFD73E"/>
<path d="M478.638 820.944C478.811 820.994 478.948 821.021 479.04 821.021C479.153 821.021 479.271 821.008 479.392 820.988C479.271 821.008 479.152 821.019 479.039 821.019C478.946 821.019 478.811 820.994 478.638 820.944Z" fill="#FFD73E"/>
<path d="M351.298 819.893C350.709 819.959 350.154 819.981 349.636 819.96C349.368 819.957 349.113 819.943 348.866 819.916C349.113 819.943 349.37 819.959 349.637 819.962C350.156 819.982 350.709 819.959 351.298 819.893Z" fill="#FFD73E"/>
<path d="M377.49 817.616C377.32 817.697 377.129 817.806 376.914 817.945L375.854 818.911C374.806 819.864 373.399 820.861 372.109 821.617C373.399 820.861 374.808 819.866 375.856 818.913L376.916 817.947C377.131 817.808 377.32 817.697 377.49 817.616Z" fill="#FFD73E"/>
<path d="M377.951 817.458C377.812 817.482 377.661 817.536 377.49 817.617C377.661 817.536 377.814 817.484 377.953 817.459C378.135 817.484 378.316 817.538 378.5 817.622L378.498 817.62C378.314 817.536 378.133 817.482 377.951 817.458Z" fill="#FFD73E"/>
<path d="M484.117 816.226C484.014 816.319 483.911 816.424 483.81 816.541C483.81 816.548 483.808 816.554 483.808 816.561C483.808 816.666 483.797 816.777 483.775 816.89C483.797 816.777 483.81 816.668 483.81 816.563C483.81 816.555 483.812 816.548 483.812 816.541C483.913 816.424 484.014 816.319 484.117 816.226Z" fill="#FFD73E"/>
<path d="M362.179 816.069L357.514 818.075C357.119 818.245 356.733 818.404 356.354 818.55C356.733 818.404 357.12 818.247 357.515 818.077L362.181 816.071L362.179 816.069Z" fill="#FFD73E"/>
<path d="M397.164 815.405L392.519 818.532C391.634 819.128 390.843 819.652 390.129 820.105C390.843 819.652 391.636 819.13 392.521 818.534L397.166 815.407L397.164 815.405Z" fill="#FFD73E"/>
<path d="M464.367 814.345C464.2 814.713 464.011 815.188 463.818 815.733C463.658 816.221 463.51 816.64 463.337 817.218C463.233 817.566 463.122 817.896 463.004 818.205C463.122 817.896 463.235 817.568 463.339 817.219C463.512 816.642 463.66 816.223 463.82 815.735C464.012 815.19 464.2 814.713 464.367 814.345Z" fill="#FFD73E"/>
<path d="M464.788 813.598C464.733 813.655 464.67 813.75 464.599 813.876C464.67 813.75 464.735 813.657 464.789 813.6C464.789 813.599 464.788 813.598 464.788 813.598Z" fill="#FFD73E"/>
<path d="M498.631 813.309C498.455 813.656 498.285 814.076 498.094 814.584C497.958 814.942 497.839 815.256 497.723 815.531C497.839 815.256 497.96 814.942 498.096 814.584C498.287 814.076 498.455 813.656 498.631 813.309Z" fill="#FFD73E"/>
<path d="M499.209 812.472C498.99 812.689 498.808 812.963 498.631 813.309C498.808 812.963 498.992 812.689 499.211 812.472C499.211 812.472 499.209 812.471 499.209 812.472Z" fill="#FFD73E"/>
<path d="M501.694 811.717C500.888 811.841 500.26 811.991 499.774 812.183C500.26 811.991 500.889 811.841 501.694 811.717Z" fill="#FFD73E"/>
<path d="M503.278 811.664C502.85 811.664 502.463 811.67 502.111 811.684C502.104 811.684 502.1 811.684 502.097 811.684C501.949 811.691 501.832 811.706 501.696 811.717C501.833 811.706 501.95 811.689 502.099 811.686C502.103 811.685 502.105 811.686 502.11 811.686C502.462 811.672 502.849 811.664 503.278 811.664Z" fill="#FFD73E"/>
<path d="M506.696 811.413C506.219 811.496 505.711 811.556 505.175 811.594C505.039 811.605 504.884 811.609 504.743 811.616C504.885 811.609 505.04 811.607 505.176 811.596C505.713 811.558 506.219 811.496 506.696 811.413Z" fill="#FFD73E"/>
<path d="M419.825 812.781C419.527 812.967 419.2 813.193 418.847 813.462L414.721 817.545C414.289 817.972 413.874 818.375 413.472 818.752C413.874 818.375 414.291 817.974 414.723 817.547L418.849 813.463C419.202 813.195 419.527 812.967 419.825 812.781Z" fill="#FFD73E"/>
<path d="M443.799 810.561L438.855 813.066C437.504 813.751 436.428 814.254 435.429 814.59L433.169 815.755L429.91 814.794C428.502 814.53 426.828 814.098 424.58 813.461L420.639 812.344C420.394 812.449 420.123 812.595 419.825 812.781C420.123 812.595 420.395 812.451 420.641 812.346L424.582 813.463C426.83 814.1 428.504 814.532 429.912 814.796L433.171 815.756L435.431 814.592C436.43 814.256 437.506 813.753 438.856 813.068L443.801 810.563L443.799 810.561Z" fill="#FFD73E"/>
<path d="M251.211 809.638C251.762 809.749 252.319 809.86 252.915 809.956C254.336 810.283 255.694 810.574 256.757 810.75C257.205 810.823 257.75 810.892 258.385 810.956C257.75 810.892 257.203 810.821 256.755 810.748C255.692 810.573 254.335 810.28 252.913 809.954C252.318 809.858 251.762 809.749 251.211 809.638Z" fill="#FFD73E"/>
<path d="M322.346 809.885C318.243 810.162 314.151 810.46 311.061 810.711C309.23 810.861 307.12 810.992 304.816 811.105C307.12 810.992 309.231 810.862 311.063 810.713C314.152 810.461 318.243 810.162 322.346 809.885Z" fill="#FFD73E"/>
<path d="M345.097 808.566L333.697 809.181C330.562 809.35 326.449 809.608 322.346 809.885C326.449 809.608 330.564 809.352 333.698 809.183L345.097 808.568V808.566Z" fill="#FFD73E"/>
<path d="M511.917 806.176C511.902 806.305 511.899 806.445 511.899 806.596C511.898 806.779 511.89 806.958 511.871 807.132C511.89 806.958 511.9 806.781 511.9 806.598C511.901 806.446 511.901 806.305 511.917 806.176Z" fill="#FFD73E"/>
<path d="M238.755 805.781L236.779 807.758C236.591 807.946 236.404 808.125 236.215 808.292C236.404 808.125 236.592 807.948 236.78 807.76L238.757 805.783L244.949 807.804C245.095 807.851 245.284 807.902 245.436 807.95L245.434 807.948C245.282 807.9 245.093 807.849 244.947 807.802L238.755 805.781Z" fill="#FFD73E"/>
<path d="M619.522 805.627C619.857 805.724 620.198 805.807 620.54 805.874C620.579 805.881 620.619 805.883 620.657 805.89C620.619 805.883 620.577 805.879 620.539 805.872C620.196 805.805 619.857 805.724 619.522 805.627Z" fill="#FFD73E"/>
<path d="M514.667 804.929C513.312 805.064 512.621 805.254 512.268 805.523C512.621 805.254 513.314 805.064 514.667 804.929Z" fill="#FFD73E"/>
<path d="M518.358 804.724C517.563 804.748 516.868 804.778 516.256 804.811C516.868 804.778 517.565 804.75 518.359 804.726L526.21 804.932C530.386 805.043 535.057 805.036 540.05 804.928C535.057 805.036 530.384 805.041 526.208 804.93L518.358 804.724Z" fill="#FFD73E"/>
<path d="M560.947 804.133C559.282 804.203 557.578 804.262 555.812 804.312C553.083 804.461 550.391 804.589 547.756 804.692C550.391 804.589 553.085 804.463 555.813 804.314C557.579 804.264 559.282 804.203 560.947 804.133Z" fill="#FFD73E"/>
<path d="M610.656 798.784L608.87 799.01L598.036 800.475C595.792 800.779 593.67 801.061 591.647 801.322C593.67 801.061 595.794 800.781 598.038 800.477L608.872 799.012L610.658 798.786L610.656 798.784Z" fill="#FFD73E"/>
<path d="M642.852 791.653C642.196 792.51 641.534 793.337 640.87 794.133C640.328 794.801 639.789 795.446 639.254 796.066C639.789 795.446 640.33 794.801 640.872 794.133C641.536 793.336 642.195 792.51 642.852 791.653Z" fill="#FFD73E"/>
<path d="M680.692 663.114C680.767 663.674 680.834 664.115 680.884 664.281C681.003 664.671 681.026 665.753 680.97 667.324C681.026 665.754 681.005 664.671 680.886 664.281C680.835 664.115 680.767 663.674 680.692 663.114Z" fill="#FFD73E"/>
<path d="M202.675 655.764C202.914 656.056 203.129 656.308 203.319 656.514C203.319 656.514 203.32 656.514 203.321 656.514C203.131 656.308 202.914 656.056 202.675 655.764Z" fill="#FFD73E"/>
<path d="M199.261 651.136C199.555 651.527 199.896 651.963 200.109 652.279C200.734 653.201 201.348 654.053 201.9 654.779C201.348 654.053 200.736 653.201 200.111 652.279C199.897 651.963 199.555 651.528 199.261 651.136Z" fill="#FFD73E"/>
<path d="M187.014 637.409C187.684 638.078 188.419 638.826 189.236 639.662C189.5 639.932 189.777 640.241 190.046 640.522C190.518 641.011 190.992 641.512 191.465 642.025C193.247 643.938 195.036 645.951 196.565 647.761C195.036 645.951 193.248 643.938 191.467 642.025C190.994 641.512 190.52 641.011 190.048 640.522C189.779 640.242 189.502 639.932 189.238 639.662C188.421 638.826 187.684 638.078 187.014 637.409Z" fill="#FFD73E"/>
<path d="M563.768 529.645C563.627 529.847 563.501 530.041 563.391 530.226C563.225 530.59 563.082 530.962 562.964 531.354C563.082 530.962 563.227 530.59 563.393 530.226C563.503 530.041 563.627 529.847 563.768 529.645Z" fill="#FFD73E"/>
<path d="M572.776 519.706C571.736 520.842 570.681 521.974 569.673 523.034C568.779 523.975 567.995 524.801 567.307 525.536C567.995 524.801 568.781 523.975 569.675 523.034C570.683 521.973 571.736 520.842 572.776 519.706Z" fill="#FFD73E"/>
<path d="M582.683 507.992C582 508.84 581.13 509.946 580.241 511.104C579.797 511.684 579.166 512.452 578.407 513.348C579.166 512.453 579.799 511.683 580.243 511.104C581.133 509.945 582 508.84 582.683 507.992Z" fill="#FFD73E"/>
<path d="M584.787 505.587C584.489 505.944 584.226 506.227 584.005 506.423C583.859 506.551 583.365 507.141 582.682 507.99C583.364 507.142 583.861 506.551 584.006 506.423C584.228 506.227 584.489 505.944 584.787 505.587Z" fill="#FFD73E"/>
<path d="M192.645 495.281C193.873 495.481 194.819 495.685 195.444 495.893C194.819 495.685 193.874 495.481 192.645 495.281Z" fill="#FFD73E"/>
<path d="M92.6253 491.869C91.6276 491.887 90.775 491.911 90.0961 491.942C87.9494 492.039 86.1202 492.142 84.5442 492.216C86.1202 492.142 87.9494 492.041 90.0961 491.944C90.775 491.913 91.6276 491.887 92.6253 491.869Z" fill="#FFD73E"/>
<path d="M96.0175 491.829C94.7654 491.837 93.6229 491.85 92.6252 491.869C93.6229 491.85 94.7654 491.839 96.0175 491.83C100.943 491.9 106.262 491.96 112.048 491.995C117.216 492.027 122.19 492.085 127.073 492.154C122.191 492.085 117.216 492.025 112.048 491.993C106.262 491.959 100.943 491.898 96.0175 491.829Z" fill="#FFD73E"/>
<path d="M74.6619 490.864C74.7984 491.023 74.9077 491.132 74.9819 491.178C75.0249 491.207 75.2089 491.232 75.4555 491.259C75.6148 491.355 75.7761 491.443 75.9438 491.524C75.7761 491.443 75.6148 491.353 75.4555 491.257C75.2091 491.23 75.0247 491.201 74.9819 491.176C74.9076 491.131 74.7984 491.023 74.6619 490.864Z" fill="#FFD73E"/>
<path d="M596.096 487.41C595.581 488.321 595.048 489.239 594.5 490.161C593.419 492.077 592.335 493.953 591.287 495.714C592.334 493.953 593.422 492.077 594.501 490.161C595.05 489.239 595.581 488.321 596.096 487.41Z" fill="#FFD73E"/>
<path d="M601.573 476.758C601.165 477.601 600.729 478.48 600.273 479.384C599.861 480.254 599.431 481.132 598.984 482.017C599.431 481.132 599.862 480.254 600.275 479.384C600.731 478.48 601.165 477.601 601.573 476.758Z" fill="#FFD73E"/>
<path d="M605.212 467.764C604.943 468.699 604.662 469.576 604.373 470.375C604.175 470.921 603.935 471.53 603.656 472.195C603.935 471.53 604.177 470.921 604.375 470.375C604.664 469.576 604.943 468.699 605.212 467.764Z" fill="#FFD73E"/>
<path d="M608.169 443.003C608.205 443.795 608.232 444.599 608.253 445.42C608.277 446.327 608.271 447.294 608.237 448.31C608.271 447.295 608.279 446.326 608.255 445.42C608.233 444.598 608.205 443.795 608.169 443.003Z" fill="#FFD73E"/>
<path d="M579.669 335.578C580.131 337.628 580.601 339.794 581.088 342.102C581.74 345.192 582.348 348.027 582.929 350.67C582.348 348.027 581.742 345.192 581.09 342.102C580.603 339.794 580.131 337.628 579.669 335.578Z" fill="black"/>
<path d="M563.593 286.886C563.641 287.767 563.699 288.538 563.768 289.216L568.307 299.969L563.77 289.216C563.701 288.538 563.641 287.767 563.593 286.886Z" fill="black"/>
<path d="M476.275 233.822C476.47 234.625 476.662 235.344 476.853 235.974C476.869 236.025 476.874 236.063 476.886 236.109C476.876 236.062 476.869 236.026 476.855 235.974C476.664 235.345 476.47 234.625 476.275 233.822Z" fill="#FFD73E"/>
<path d="M472.669 211.106C473.875 221.125 475.106 228.997 476.275 233.819C475.106 228.997 473.875 221.126 472.669 211.106Z" fill="#FFD73E"/>
<path d="M466.507 134.11C466.69 137.637 466.883 141.142 467.086 144.618C467.212 147.149 467.344 149.485 467.483 151.565C467.549 152.549 467.631 153.582 467.701 154.579C468.325 164.197 469.02 173.462 469.756 182.108C469.02 173.462 468.327 164.197 467.703 154.579C467.633 153.582 467.551 152.549 467.485 151.565C467.346 149.485 467.214 147.149 467.088 144.618C466.885 141.142 466.69 137.636 466.507 134.11Z" fill="#FFD73E"/>
<path d="M485.882 10.917C486.443 11.5873 487.019 12.2932 487.612 13.0346C488.355 13.9645 489.099 14.917 489.843 15.8947C489.099 14.9177 488.356 13.9639 487.613 13.0346C487.021 12.2932 486.443 11.5873 485.882 10.917Z" fill="#FFD73E"/>
<path d="M465.336 92.855C465.482 105.662 465.701 117.049 465.989 123.477C466.149 127.036 466.323 130.583 466.506 134.109C466.323 130.583 466.15 127.037 465.991 123.477C465.703 117.049 465.482 105.662 465.336 92.855Z" fill="#FFD73E"/>
<path d="M465.252 35.8545C465.179 40.8294 465.138 47.1455 465.128 54.1178C465.053 62.1006 465.085 70.7012 465.214 79.7069C465.246 84.1607 465.287 88.5863 465.336 92.8553C465.287 88.5863 465.247 84.1607 465.215 79.7069C465.086 70.7012 465.056 62.1006 465.129 54.1178C465.14 47.1455 465.179 40.8294 465.252 35.8545Z" fill="#FFD73E"/>
<path d="M470.808 2.12949C468.709 4.02865 467.583 7.43997 466.521 16.3056C466.512 16.3898 466.501 16.4625 466.492 16.5507C466.188 19.1172 465.888 22.0604 465.572 25.6339C465.536 26.0369 465.504 26.5651 465.473 27.2102C465.504 26.565 465.538 26.0369 465.574 25.6339C465.89 22.0604 466.19 19.1171 466.494 16.5507C466.504 16.4626 466.512 16.3899 466.523 16.3056C467.585 7.44 468.711 4.02864 470.809 2.12949C470.809 2.12982 470.808 2.12916 470.808 2.12949Z" fill="#FFD73E"/>
<path d="M472.576 80.3877L472.583 87.516C472.585 89.2092 472.618 91.3086 472.663 93.5782L472.808 99.0186C473.472 122.44 475.569 162.436 476.765 171.684C476.965 173.229 477.4 178.074 477.732 182.452C478.526 192.905 482.511 223.943 483.796 229.678C485.327 236.508 486.034 237.27 492.902 239.482C499.046 241.461 503.942 243.824 506.551 245.789C507.386 246.353 507.934 246.842 508.087 247.215C509.072 248.456 508.714 249.382 506.582 249.686C505.461 249.845 502.3 249.3 499.56 248.473C491.632 246.082 468.053 241.551 459.414 240.758C458.018 240.63 456.522 240.524 454.98 240.425C449.207 240.171 442.551 240.118 433.715 240.125C428.142 240.131 423.198 240.207 418.495 240.334C407.723 240.8 397.175 241.648 388.775 242.832C362.563 246.526 354.177 248.305 334.938 254.249C330.318 255.676 327.145 256.623 325.066 257.405C324.496 257.631 323.976 257.848 323.525 258.05C320.479 259.536 321.98 260.664 325.361 264.239C325.547 264.435 325.699 264.608 325.876 264.798C326.887 265.778 327.775 266.788 328.534 267.786C331.287 271.096 332.292 273.185 331.648 274.227C330.547 276.008 328.161 275.099 323.384 271.078C309.154 259.101 270.087 238.115 239.433 225.982C201.331 210.901 162.005 199.966 121.46 193.179C110.567 191.355 110.414 190.821 109.88 197.824C109.808 200.359 109.756 203.327 109.756 206.64C109.756 210.104 109.781 212.795 109.851 215.057C110.892 225.067 113.85 234.4 118.611 242.413L120.513 245.617C121.692 247.269 122.805 248.507 123.729 249.086C124.356 249.478 125.902 250.314 127.839 251.337L147.993 261.382C162.146 268.437 173.943 274.209 174.209 274.209C174.475 274.209 177.989 275.74 182.018 277.612C209.511 290.387 262.587 309.846 277.175 312.5C283.014 313.562 284.162 313.975 284.341 315.724C284.355 315.788 284.378 315.852 284.378 315.914C284.378 315.969 284.364 316.019 284.36 316.072C284.367 316.182 284.378 316.276 284.378 316.397C284.378 317.614 283.681 318.264 282.271 318.363C281.502 318.417 280.405 318.432 279.177 318.418C277.968 318.464 276.552 318.419 274.932 318.283C272.524 318.164 270.281 317.984 269.042 317.785C268.435 317.751 267.944 317.736 267.532 317.734C265.76 318.626 264.102 324.529 261.535 338.599C259.345 350.607 257.938 364.831 257.437 378.251C257.396 386.076 257.594 395.513 258.042 407.121C258.121 407.892 258.195 408.674 258.286 409.407C258.672 412.55 259.445 425.469 260.003 438.118C261.623 474.82 263.677 488.701 269.819 504.419C272.435 511.115 275.511 517.214 279.122 522.814C282.538 528.035 286.46 532.875 290.923 537.364C294.27 540.73 298.028 543.974 302.015 547.003C307.415 551.003 313.431 554.684 320.153 558.119C324.182 560.179 329.895 562.611 332.848 563.523C335.638 564.385 337.445 565.287 338.178 566.158C338.519 566.53 338.683 566.911 338.683 567.345C338.683 567.505 338.655 567.649 338.614 567.788C338.452 570.126 335.157 570.125 326.511 567.989C311.429 564.263 290.404 549.968 279.118 535.765L275.37 531.049C274.997 530.792 274.683 530.703 274.422 530.828L273.879 534.363C273.512 536.755 272.779 542.505 272.252 547.14C270.313 564.164 257.507 609.72 248.455 631.802C247.458 634.233 246.604 636.499 246.216 637.701C246.127 638.066 246.069 638.379 246.033 638.645C246.252 639.071 247.927 639.803 249.969 640.34C257.48 642.317 267.587 647.825 271.829 652.252C276.036 656.643 276.956 659.173 275.166 659.432C274.121 659.887 272.166 659.334 270.138 657.87C269.199 657.396 268.163 656.822 267.02 656.127C261.046 652.498 257.549 650.729 253.29 649.427C253.033 649.348 252.774 649.279 252.516 649.204C251.227 648.834 249.871 648.492 248.33 648.154C235.123 645.257 223.82 647.167 216.092 653.393C215.464 653.959 214.813 654.565 214.093 655.27C213.525 655.826 212.986 656.384 212.469 656.938C211.927 657.581 211.41 658.253 210.924 658.956C209.328 661.263 208.678 662.268 208.728 663.217C208.882 663.704 209.131 664.312 209.443 664.989C209.531 665.136 209.608 665.27 209.712 665.436C213.563 671.608 217.916 680.742 220.512 688.102C224.341 698.957 224.694 703.034 221.809 703.034C220.628 703.034 219.252 701.224 217.361 697.182C212.726 687.275 206.381 675.454 200.963 666.174C196.268 658.29 191.981 651.777 190.507 650.619C190.246 650.467 190.072 650.489 190.02 650.747C189.8 651.832 192.215 661.839 195.113 672.023C195.908 674.356 196.299 675.957 196.274 677.031C196.296 677.887 196.059 678.416 195.543 678.919C194.568 679.867 193.764 679.434 191.372 676.673C186.488 671.038 181.385 654.633 181.385 644.568C181.385 642.826 181.142 641.43 180.685 640.437C180.499 640.062 180.301 639.752 180.09 639.541C179.693 639.144 179.402 638.888 179.185 638.817C179.034 638.878 178.894 638.992 178.77 639.159C178.646 639.553 178.609 640.463 178.594 641.701C178.644 642.709 178.732 643.975 178.861 645.665C179.472 653.643 181.034 660.88 184.327 670.998C185.38 674.235 186.005 677.501 185.715 678.255C184.258 682.053 179.318 677.328 175.891 668.859C174.112 664.461 173.994 664.356 173.946 667.127C173.803 675.349 178.761 698.134 185.73 721.29C197.066 758.954 215.703 793.336 228.406 800.023C229.882 800.8 230.54 801.068 231.192 800.612C231.389 800.428 231.615 800.183 231.863 799.906C232.086 799.614 232.326 799.272 232.62 798.823C234.049 796.644 234.33 793.594 234.589 777.352C234.816 763.156 235.188 758.31 236.078 757.968C239.192 756.773 241.339 761.81 242.224 771.916C242.912 776.93 243.245 782.822 243.027 788.683L242.732 796.53L243.1 796.753L245.989 797.971C253.126 800.978 255.87 801.62 270.525 801.759C273.868 801.776 277.115 801.794 282.037 801.797C301.751 801.765 321.947 800.942 327.486 799.921C328.279 799.775 333.628 799.352 339.376 798.979C347.889 798.427 349.894 798.018 350.186 796.779C350.598 795.03 349.871 793.686 338.218 774.661C307.388 724.322 287.737 682.627 280.854 652.942C279.708 647.999 278.942 643.126 278.572 638.973C278.215 636.16 278.009 633.713 277.981 631.833C277.854 630.044 277.911 629.056 278.215 628.593C278.328 628.145 278.479 627.835 278.676 627.713C278.965 627.533 279.29 627.476 279.625 627.505C279.712 627.45 279.801 627.405 279.897 627.388C280.923 627.183 281.58 627.784 282.013 629.31C282.31 629.835 282.505 630.423 282.505 631.03C282.505 631.106 282.542 631.309 282.571 631.477C285.561 643.454 293.833 670.268 297.186 678.69C300.46 686.917 306.811 701.572 310.565 709.766C311.577 711.847 312.605 713.94 313.681 716.069C314.339 717.149 316.329 720.848 318.492 725.037C320.885 729.672 323.599 734.728 324.523 736.273C325.447 737.817 327.597 741.61 329.3 744.699C331.002 747.789 333.118 751.37 334.001 752.658C334.885 753.945 336.668 756.895 337.964 759.212C339.261 761.529 344.376 770.007 349.333 778.051C354.161 785.887 357.073 791.24 357.996 793.925C358.2 794.432 358.345 794.85 358.345 795.044C358.345 795.085 358.331 795.152 358.327 795.199C358.334 795.256 358.345 795.322 358.345 795.373C358.345 796.855 357.099 800.702 355.576 803.92C354.278 806.665 353.404 808.963 353.4 809.582C353.798 809.541 354.628 809.242 355.64 808.806C356.411 808.413 357.285 807.948 358.208 807.42C361.485 805.547 363.665 804.815 365.32 805.273C366.435 805.481 367.234 806.267 368.004 807.642C368.146 807.876 368.285 808.125 368.423 808.393L368.856 809.236C369.299 810.072 369.633 810.673 369.879 811.074C370.209 811.17 370.578 811.123 371.009 810.937L373.977 808.393C374.761 807.722 375.565 807.131 376.332 806.608C376.364 806.587 376.392 806.567 376.424 806.546C376.867 806.246 377.304 805.954 377.689 805.738C378.25 805.36 378.716 805.088 378.903 805.088C378.943 805.088 379.003 805.117 379.059 805.138C379.151 805.116 379.248 805.09 379.318 805.09C379.74 805.09 380.378 805.489 381.056 806.118C381.829 806.678 382.573 807.594 383.34 808.892C383.511 809.182 383.692 809.447 383.872 809.709C384.716 810.81 385.506 811.592 385.858 811.624C386.14 811.573 386.894 811.175 387.939 810.54C388.992 809.863 390.329 808.929 391.693 807.899C394.032 806.134 396.613 804.652 397.953 804.262C398.037 804.23 398.098 804.217 398.161 804.199C398.204 804.185 398.263 804.152 398.284 804.152C398.287 804.152 398.301 804.165 398.305 804.165C398.316 804.165 398.337 804.154 398.349 804.154C398.363 804.154 398.392 804.168 398.409 804.172C398.441 804.168 398.492 804.154 398.521 804.154C399.681 804.154 401.488 805.751 403.292 808.373C405.737 811.926 406.746 812.84 409.374 810.6C409.652 810.344 409.938 810.077 410.246 809.785C411.099 808.962 412.07 807.943 413.309 806.581C415.479 804.196 417.197 802.857 419.104 802.42C419.297 802.334 419.458 802.281 419.567 802.281C419.607 802.281 419.705 802.306 419.755 802.31C421.504 802.098 423.458 802.589 426.081 803.685C427.142 804.128 428.132 804.508 428.866 804.765C429.315 804.818 429.692 804.824 429.925 804.737C429.742 804.152 429.102 802.831 428.228 801.208C427.436 800.163 426.82 799.117 426.344 797.927L425.289 796.334L425.278 795.954L424.353 794.321L424.117 775.595C423.795 750.015 420.724 717.529 415.189 680.998C413.3 669.562 411.179 658.18 408.842 647.095C408.042 643.567 407.143 639.671 406.024 634.896C405.102 630.963 404.412 627.845 403.893 625.299C403.151 622.233 402.714 620.225 402.622 619.017C402.622 619.014 402.623 619.01 402.622 619.01C402.622 619.007 402.619 618.996 402.619 618.996C402.373 617.934 402.454 617.323 402.89 617.056C402.929 616.931 402.976 616.825 403.038 616.763C404.221 615.58 405.31 616.12 407.068 619.177C407.865 620.409 408.697 622.064 409.559 624.124C409.566 624.138 409.573 624.148 409.58 624.164C413.177 631.95 416.09 642.593 419.245 659.491C420.399 665.671 421.671 671.092 422.072 671.54C422.474 671.989 423.076 670.303 423.411 667.795C424.173 662.092 430.028 642.903 432.463 638.13C433.546 636.007 434.563 634.924 435.522 634.86C436.255 634.47 436.904 634.709 437.457 635.604C437.514 635.696 437.478 636.187 437.404 636.844C437.403 637.25 437.364 637.746 437.298 638.309C437.17 640.86 436.342 645.183 434.727 652.469C425.484 694.165 425.232 696.369 427.587 714.868C430.082 734.459 432.309 765.174 432.311 780.017C432.313 791.075 432.496 792.308 434.849 797.105C436.556 800.585 437.515 802.052 438.724 802.106C439.185 801.956 439.825 801.706 440.542 801.401C440.773 801.248 441.001 801.099 441.263 800.901C442.472 799.987 443.539 799.513 444.602 799.511L445.587 799.042L445.662 798.999L445.666 799.003L445.673 799.001L446.692 800.126C448.004 800.883 449.432 802.345 451.207 804.617C452.351 806.082 453.462 807.391 454.334 808.331C455.123 809.045 455.731 809.462 456.192 809.577C456.463 809.168 456.658 808.123 456.658 806.896C456.658 803.132 458.183 800.404 460.284 800.404C461.212 800.404 464.882 802.291 468.442 804.597C472.003 806.903 475.145 808.8 475.424 808.81C475.704 808.821 475.914 806.618 475.892 803.915C475.891 803.74 475.893 803.607 475.892 803.445C475.868 802.917 475.878 802.434 475.914 801.98C475.986 799.771 476.308 799.089 477.316 798.822C477.623 798.634 477.973 798.531 478.37 798.531C478.452 798.531 478.584 798.613 478.737 798.738C479.712 798.938 480.459 799.803 481.343 801.667C482.339 803.766 483.917 805.264 485.838 805.934C487.028 806.348 488.138 806.611 488.738 806.643C488.767 806.64 488.811 806.643 488.835 806.64C489.033 806.518 489.126 806.306 489.122 805.985C488.919 805.212 488.335 803.801 487.542 802.247C485.703 798.641 485.654 798.159 487.003 796.81C488.351 795.462 488.804 795.644 492.105 798.868C494.022 800.74 495.162 801.635 496.457 801.982C496.638 802.03 496.83 802.056 497.019 802.084C497.115 802.098 497.206 802.12 497.306 802.13C497.309 802.13 497.309 802.13 497.313 802.13C497.845 802.177 498.43 802.165 499.107 802.105L502.457 801.809L502.355 801.646L501.195 800.128L498.816 797.257C497.599 795.788 496.524 794.19 495.834 792.903C495.74 792.744 495.66 792.585 495.59 792.429C495.254 791.741 495.047 791.166 495.047 790.815C495.047 790.783 495.065 790.71 495.072 790.666C495.069 790.622 495.047 790.561 495.047 790.524C495.047 789.636 496.055 787.212 497.984 783.39C500.285 778.341 503.272 772.384 504.423 770.909C508.192 766.078 526.963 728.822 532.492 715.199C546.295 681.186 551.943 654.866 555.396 608.461C555.902 601.666 556.284 597.088 556.673 593.886C556.877 591.598 557.079 590.125 557.421 589.509C558.079 587.271 558.925 587.67 560.387 589.132C562.695 591.44 563.079 613.762 561.122 631.896C557.092 669.243 549.024 698.821 532.139 734.655C529.903 739.639 527.952 743.779 526.878 745.629C526.702 745.932 526.273 746.718 525.995 747.216C522.319 754.474 518.3 762.021 513.885 769.973C508.881 778.985 504.68 786.885 503.717 789.064C503.65 789.217 503.65 789.253 503.615 789.348C503.563 789.515 503.552 789.606 503.531 789.721C503.594 790.272 504.193 791.442 504.926 792.411C506.013 793.848 511.424 794.756 519.536 795.182C523.34 795.235 528.197 795.255 534.798 795.255C539.274 795.255 543.711 795.2 548.021 795.12C561.755 794.588 577.242 793.444 592.254 791.726C597.37 791.099 601.79 790.532 604.393 790.135C607.11 789.597 607.955 788.859 608.319 786.788C608.326 786.663 608.341 786.545 608.341 786.419C608.341 785.763 608.434 785.156 608.593 784.61C608.824 782.893 609.223 782.326 610.365 782.189C610.898 781.936 611.481 781.928 612.042 782.24C613.195 782.484 613.738 783.311 614.315 785.424C615.553 789.962 619.09 795.132 621.571 796.274C621.744 796.344 621.918 796.405 622.091 796.457C622.145 796.467 622.204 796.493 622.257 796.5C622.26 796.501 622.26 796.5 622.264 796.5C625.589 796.971 630.772 792.924 636.566 785.329C654.744 761.502 669.733 715.226 672.349 675.57C672.395 674.437 672.447 673.339 672.482 672.132L672.831 660.265C672.828 660.041 672.814 659.915 672.806 659.726C672.753 659.453 672.701 659.203 672.656 658.991L671.515 665.236C670.75 671.286 669.418 676.974 667.927 681.103C667.295 683.012 666.657 684.429 665.993 685.399C665.164 686.783 664.339 687.581 663.582 687.581C663.251 687.581 663.007 687.442 662.82 687.125C662.269 687.118 661.959 686.939 661.896 685.776C661.786 684.764 661.907 683.012 662.18 679.856C662.38 677.546 662.594 675.325 662.787 673.447C663.016 670.265 663.312 667.037 663.608 664.808C664.672 656.807 664.819 639.891 663.853 639.385C663.502 639.374 663.067 639.648 662.612 640.133C661.547 641.652 660.811 645.428 660.375 651.57C659.58 662.756 657.442 673.631 655.081 680.118C654.882 680.676 654.679 681.195 654.476 681.687C654.472 681.694 654.472 681.701 654.469 681.708C653.314 684.49 652.099 686.176 650.974 686.176C650.97 686.176 650.967 686.176 650.967 686.176C650.079 686.175 649.512 685.93 649.228 685.128C648.691 683.761 648.961 680.804 649.915 674.843C650.69 670.004 651.566 662.042 651.863 657.15L652.358 649.005C652.143 649.186 651.889 649.47 651.594 649.868L648.637 655.746C639.479 673.96 629.412 702.163 623.405 726.436C620.476 738.269 619.803 740.013 618.171 740.013C618.153 740.013 618.142 740.009 618.123 740.009C618.113 740.009 618.099 740.013 618.088 740.013C617.678 740.013 617.36 739.941 617.102 739.77C617.036 739.725 616.974 739.672 616.916 739.61C616.64 739.326 616.451 738.841 616.314 738.089C615.871 736.733 615.785 734.565 615.987 731.805C616.201 721.56 620.341 705.777 628.682 683.418L632.409 673.426C632.604 672.102 631.802 670.996 628.989 667.903L622.459 661.658C610.582 650.303 601.808 645.142 592.545 644.561C591.954 644.547 591.339 644.537 590.648 644.533C589.786 644.53 588.9 644.569 588.002 644.632C586.855 644.736 585.697 644.881 584.513 645.109C578.198 646.324 569.539 649.832 566.857 652.259C565.38 653.596 565.074 653.718 564.114 652.486C563.757 652.34 563.551 652.042 563.497 651.625C562.556 650.176 563.082 649.448 567.334 645.362C567.501 645.201 567.667 645.066 567.833 644.912C567.872 644.876 567.903 644.845 567.941 644.809C567.979 644.774 568.022 644.744 568.06 644.709C572.74 640.434 577.377 638.359 585.166 637.054C587.097 636.73 588.677 636.041 588.677 635.523C588.677 635.005 585.59 628.599 581.816 621.287C567.047 592.674 559.348 570.02 556.775 547.603C556.155 542.196 555.389 537.48 555.074 537.124C554.76 536.768 550.921 539.441 546.544 543.064C542.166 546.687 536.893 550.77 534.825 552.138C532.757 553.505 529.503 555.825 527.594 557.291C521.957 561.623 506.957 569.551 499.771 571.998C494.194 573.896 492.963 574.055 492.286 572.96C492.115 572.683 492.016 572.368 491.947 572.047C491.705 571.661 491.599 571.288 491.737 571.063C491.755 571.035 491.832 570.971 491.893 570.917C492.009 569.953 492.506 569.138 493.242 569.138C494.201 569.138 510.992 559.151 518.923 553.864C532.006 545.144 547.773 532.277 558.973 521.407C562.282 518.037 565.575 514.545 568.596 511.195C573.305 505.659 579.333 497.931 582.843 493.012C583.758 491.659 584.631 490.34 585.448 489.082C585.542 488.905 585.63 488.735 585.67 488.621C585.948 487.846 586.935 486.109 587.867 484.763L589.355 482.611C589.407 482.503 589.461 482.393 589.496 482.309L584.946 481.769C578.249 480.976 570.439 476.793 565.593 471.404C559.068 464.146 555.965 455.399 555.888 444.089C555.885 443.855 555.881 443.622 555.881 443.388C555.881 443.334 555.879 443.282 555.879 443.227C555.879 443.044 555.886 442.868 555.89 442.686C555.893 442.379 555.897 442.073 555.908 441.764C556.166 432.887 558.234 426.087 562.315 420.685C563.092 419.591 563.944 418.56 564.863 417.583C564.884 417.562 564.902 417.537 564.923 417.516C565.003 417.431 565.083 417.345 565.164 417.262C571.189 410.704 577.85 407.841 587.037 407.705C589.776 407.664 592.028 407.403 592.355 407.107C592.38 407.056 592.391 407.001 592.397 406.946C592.334 406.466 591.285 403.443 589.985 400.013C583.462 382.795 578.698 366.582 575.575 350.98C572.921 337.719 569.475 323.995 566.525 314.932C563.323 305.097 555.856 289.236 551.714 283.471C549.9 280.946 548.415 278.668 548.415 278.409C548.415 278.151 546.098 274.92 543.266 271.228C539.888 266.825 538.258 264.089 538.226 262.584C538.07 261.595 538.507 261.095 539.553 261.095C539.605 261.095 539.66 261.104 539.713 261.106C539.754 261.102 539.788 261.095 539.831 261.095C539.853 261.095 539.898 261.11 539.927 261.117C540.072 261.107 540.218 261.095 540.382 261.095C542.004 261.095 544.532 263.144 549.317 268.337L555.99 275.579L555.862 264.151L555.619 255.474C555.548 252.948 555.446 250.422 555.337 247.896C554.062 224.39 550.536 194.244 546.439 173.021C546.21 171.855 545.975 170.691 545.738 169.528C543.017 156.465 536.382 131.691 531.69 117.181C526.622 101.51 526.571 101.436 515.557 93.9806C503.099 85.5476 492.675 81.7102 479.365 80.6566L475.995 80.3898L472.576 80.3877ZM530.566 327.185C542.062 327.322 553.033 334.282 558.567 346.183C562.03 353.628 561.996 365.023 558.49 372.513C555.521 378.856 549.459 384.863 543.279 387.589C537.516 390.131 527.755 390.836 522.99 389.055C513.251 385.413 506.742 379.523 502.684 370.682C499.466 363.673 499.336 352.728 502.388 345.903C505.675 338.55 510.319 333.623 517.123 330.273C521.489 328.124 526.068 327.132 530.566 327.185ZM12.387 329.725C10.8358 329.75 9.91597 329.861 9.79201 330.072C9.31042 330.895 12.6604 340.384 20.9764 361.745C26.0254 374.715 29.134 382.089 39.5232 405.751C47.0894 422.985 63.6744 456.634 68.6088 464.762C70.9015 468.539 72.7764 471.876 72.7764 472.178C72.7764 472.226 72.8787 472.421 72.9555 472.582C74.023 474.399 74.9108 475.867 75.6144 476.976C75.8313 477.309 76.0313 477.626 76.2599 477.971L77.935 480.496L79.4657 482.753L87.3693 482.855L93.3474 482.574C107.522 481.904 157.188 483.287 186.908 485.178C188.011 485.248 188.635 485.302 189.609 485.368C200.561 485.925 203.566 486.239 204.644 487.367C204.856 487.515 205.011 487.674 205.122 487.85C205.879 489.055 204.977 493.136 201.296 505.171C191.858 536.026 181.009 573.94 178.627 584.085C178.282 585.722 178.184 586.59 178.282 586.865C178.835 587.216 182.697 588.687 187.251 590.272C216.579 600.479 234.145 607.23 238.082 609.81C238.279 609.938 238.492 610.139 238.709 610.369L239.927 610.938L240.697 613.381C241.107 614.192 241.483 615.057 241.767 615.914C242.629 618.508 243.616 620.632 243.962 620.632C244.307 620.632 246.173 616.103 248.107 610.567C251.602 600.564 254.702 589.705 254.204 589.208C254.061 589.065 245.962 585.109 236.208 580.419C226.453 575.728 218.292 571.709 218.071 571.487C216.847 570.264 218.057 565.991 220.885 561.548C222.654 558.769 224.387 555.864 224.734 555.091C225.437 553.531 231.654 544.608 242.257 529.945C246.113 524.612 249.9 519.333 250.673 518.213C251.445 517.093 254.103 513.364 256.578 509.928L260.027 505.136C260.615 504.168 260.931 503.546 260.959 503.277L259.222 497.317C255.467 484.434 252.726 465.735 252.593 452.098C252.555 448.236 252.109 437.703 251.602 428.691C251.095 419.679 250.403 407.117 250.064 400.776L249.492 390.059L249.438 389.242L244.113 386.554C241.18 385.073 233.557 381.69 227.172 379.036C175.854 357.705 128.596 344.333 73.7124 335.613C55.9341 332.788 25.4292 329.904 14.1422 329.728C13.4911 329.718 12.904 329.717 12.387 329.725ZM345.96 337.394C346.587 337.38 347.216 337.392 347.842 337.416C353.222 337.492 355.403 337.996 359.5 339.916C364.016 342.033 368.137 345.46 371.335 349.656C372.5 351.116 373.438 352.555 374.188 354.067C374.473 354.591 374.749 355.121 375.005 355.66C377.066 359.994 377.447 362.069 377.412 368.768C377.376 375.585 376.985 377.512 374.681 382.205C371.592 388.501 365.619 394.236 358.814 397.442C352.134 400.588 340.213 400.588 333.534 397.442C325.286 393.557 319.283 386.752 316.439 378.944C316.103 378.124 315.863 377.365 315.687 376.602C314.271 371.477 314.19 366.017 315.702 360.727C318.488 350.976 324.052 344.308 333.067 339.913C337.315 337.841 339.38 337.423 345.727 337.405C345.804 337.405 345.882 337.396 345.96 337.394ZM463.308 376.549C466.843 376.67 468.832 377.735 468.832 379.614C468.832 381.876 466.218 386.315 463.948 387.905C463.149 388.465 462.45 388.826 461.75 389.03C461.646 389.068 461.537 389.096 461.432 389.121C461.359 389.135 461.285 389.149 461.212 389.161C461.072 389.183 460.925 389.199 460.777 389.198C459.525 389.268 458.141 388.818 456.099 387.799C454.503 387.003 452.487 385.149 451.619 383.679C450.649 382.038 450.323 381.361 450.666 380.629C450.677 380.585 450.68 380.538 450.695 380.497C450.868 380.046 451.252 379.624 451.808 379.239C451.819 379.225 451.826 379.218 451.84 379.204C453.003 378.042 455.641 377.17 459.274 376.748C460.779 376.574 462.13 376.509 463.308 376.549ZM462.344 401.348C463.408 401.355 464.419 401.492 465.46 401.727C467.52 402.189 476.178 405.783 484.7 409.713C493.639 413.835 499.046 416.095 503.282 416.938C505.706 417.219 508.119 417.228 510.405 416.945C512.067 416.591 513.782 416.012 515.774 415.215C522.91 412.36 522.783 412.378 523.451 414.118C524.203 416.078 520.733 420.02 516.258 422.288C513.711 423.579 512.48 424.238 511.772 425.563C511.417 426.537 511.106 427.785 510.842 429.384C510.75 430.101 510.658 430.9 510.555 431.847C509.693 439.78 506.972 451.09 502.077 467.079C494.365 492.266 483.95 513.214 473.563 524.433C463.232 535.592 453.275 538.746 442.035 534.423C441.023 534.034 440.012 533.548 439.003 533.015C438.012 532.557 437.134 532.041 436.201 531.363C416.55 518.406 398.355 479.49 392.976 437.117C392.536 433.65 392.077 431.32 391.533 429.89C391.512 429.834 391.489 429.788 391.467 429.735C391.376 429.511 391.285 429.297 391.189 429.12C391.171 429.085 391.15 429.063 391.133 429.031C390.911 428.648 390.678 428.376 390.425 428.223C389.789 427.836 388.299 426.649 386.731 425.299C386.208 424.848 385.675 424.379 385.164 423.916C382.562 421.559 381.688 420.178 382.051 419.01C382.055 418.978 382.065 418.948 382.072 418.916C382.076 418.909 382.076 418.902 382.08 418.895C382.08 418.891 382.08 418.888 382.081 418.888C382.11 418.752 382.163 418.629 382.237 418.518C382.477 417.959 382.737 417.646 383.509 417.701C383.888 417.715 384.4 417.833 385.068 418.041C385.075 418.043 385.075 418.043 385.082 418.045C385.208 418.085 385.357 418.135 385.497 418.182C386.939 418.64 389.043 419.428 392.331 420.669C397.035 422.445 400.468 423.072 405.51 423.072C413.749 423.072 417.736 421.581 438.634 410.688C439.278 410.352 439.792 410.096 440.402 409.781C441.225 409.355 442.046 408.927 442.847 408.526C453.283 403.218 458.258 401.317 462.344 401.348ZM304.801 424.382C311.521 424.38 318.347 426.532 324.26 430.282C328.335 432.672 331.8 435.847 334.558 439.736C336.078 441.756 337.394 443.932 338.458 446.243C339.804 449.163 340.429 450.985 340.724 454.046C341.727 458.831 341.752 463.656 340.911 468.284C340.721 472.554 340.056 474.162 337.862 478.534C331.853 490.508 321.086 497.688 306.851 499.213C304.534 499.461 300.742 499.289 298.424 498.831C293.987 497.954 289.963 496.52 286.375 494.572C285.069 493.981 284.036 493.454 283.628 493.135C283.146 492.757 282.654 492.332 282.163 491.906C277.339 488.354 273.535 483.666 270.855 477.949C270.819 477.88 270.771 477.803 270.739 477.735C269.706 475.593 269.083 474.073 268.689 472.335C268.202 470.767 267.782 469.143 267.439 467.456C266.544 463.069 266.523 460.513 267.343 456.427C270.752 439.455 281.985 428.288 299.022 424.936C300.923 424.562 302.858 424.383 304.801 424.382Z" fill="#FFD73E"/>
<path d="M588.432 415.36C585.024 415.32 581.041 416.011 577.909 417.384C572.465 419.771 567.542 425.179 565.233 431.308C562.704 438.019 562.919 448.799 565.536 456.339C566.047 457.686 566.616 458.97 567.237 460.188C569.945 465.119 574.593 469.965 578.846 472.167C582.148 473.876 589.471 474.084 592.81 472.563C597.171 470.576 601.427 452.594 600.445 440.299C599.624 430.025 596.747 418.321 594.67 416.802C593.386 415.864 591.083 415.391 588.432 415.36ZM304.999 431.394C303.434 431.394 301.876 431.539 300.346 431.84C286.631 434.538 277.587 443.528 274.843 457.191C274.182 460.481 274.2 462.538 274.92 466.07C275.197 467.428 275.534 468.736 275.926 469.998C276.243 471.397 276.746 472.622 277.577 474.346C277.603 474.401 277.641 474.463 277.669 474.518C279.826 479.12 282.89 482.894 286.774 485.754C287.169 486.097 287.565 486.439 287.953 486.743C288.282 487 289.112 487.425 290.164 487.901C293.053 489.469 296.291 490.624 299.864 491.33C301.729 491.698 304.782 491.837 306.648 491.637C318.108 490.409 326.776 484.63 331.614 474.99C333.38 471.47 333.915 470.174 334.068 466.737C334.745 463.011 334.725 459.127 333.918 455.275C333.68 452.811 333.176 451.344 332.093 448.993C331.236 447.133 330.177 445.381 328.953 443.756C326.733 440.625 323.943 438.069 320.663 436.145C315.903 433.126 310.409 431.393 304.999 431.395L304.999 431.394Z" fill="#EE4E36"/>
<path d="M525.197 336C519.858 335.993 514.736 341.236 514.711 346.724C514.711 346.782 514.713 346.828 514.713 346.885C514.751 349.074 515.844 351.754 517.372 353.808C517.414 353.861 517.458 353.912 517.5 353.964C517.764 354.24 518.03 354.518 518.345 354.833C518.932 355.419 519.51 355.927 520.084 356.372C523.155 358.107 528.562 357.795 531.629 355.612C535.453 352.889 536.859 347.705 534.988 343.228C533.434 339.508 528.69 336.008 525.197 336ZM347.394 345.393C347.104 345.396 346.824 345.415 346.545 345.433C338.826 346.234 334.641 353.916 338.129 360.973C339.053 362.64 340.382 364.165 341.882 365.318C345.596 367.737 350.652 367.515 354.52 364.285C357.143 362.096 357.722 360.892 358.113 356.817C358.177 356.157 358.222 355.6 358.254 355.09C358.106 353.451 357.766 352.009 357.225 350.782C356.765 350.18 356.146 349.524 355.281 348.659C353.935 347.313 352.963 346.504 351.925 346.02C350.611 345.592 349.105 345.375 347.394 345.393Z" fill="white"/>
<path d="M450.016 448.293C434.501 448.44 420.787 457.549 407.992 471.239C415.642 496.087 426.867 516.087 438.678 524.676C439.523 525.353 440.319 525.869 441.218 526.327C442.132 526.861 443.049 527.346 443.966 527.736C454.157 532.059 463.185 528.904 472.552 517.745C480.595 508.163 488.652 491.467 495.19 471.108C478.387 454.815 463.521 448.165 450.016 448.293Z" fill="#EE7277"/>
</svg>
